<?xml version="1.0" standalone="no"?>
<!DOCTYPE svg PUBLIC "-//W3C//DTD SVG 20010904//EN"
 "http://www.w3.org/TR/2001/REC-SVG-20010904/DTD/svg10.dtd">
<svg version="1.0" xmlns="http://www.w3.org/2000/svg"
 width="1000.000000pt" height="1000.000000pt" viewBox="0 0 1000.000000 1000.000000"
 preserveAspectRatio="xMidYMid meet">
<metadata>
Created by potrace 1.14, written by Peter Selinger 2001-2017
</metadata>
<g transform="translate(0.000000,1000.000000) scale(0.100000,-0.100000)"
fill="#000000" stroke="none">
<path d="M8710 9204 c-47 -19 -98 -41 -115 -49 -16 -7 -106 -46 -200 -85 -93
-40 -300 -127 -460 -195 -159 -67 -335 -142 -390 -165 -55 -23 -113 -47 -130
-55 -16 -7 -238 -101 -492 -209 l-462 -195 -73 28 c-134 52 -402 134 -477 147
-14 3 -39 9 -56 14 -16 4 -48 11 -70 15 -40 7 -66 12 -107 19 -13 2 -34 7 -48
10 -14 3 -43 7 -65 10 -22 3 -56 7 -75 11 -212 33 -646 38 -895 10 -150 -16
-154 -17 -385 -59 -85 -16 -104 -21 -232 -55 -109 -29 -336 -104 -407 -134
-36 -15 -31 -17 -158 39 -52 22 -89 38 -233 99 -74 32 -148 63 -165 71 -16 7
-59 25 -95 40 -36 14 -83 34 -105 44 -22 10 -85 37 -140 60 -55 23 -118 51
-141 61 -22 10 -65 27 -94 39 -29 12 -72 29 -94 39 -23 11 -207 89 -411 176
-370 157 -464 197 -563 241 -29 13 -55 24 -58 24 -5 0 -1 -125 11 -355 2 -44
7 -141 10 -215 9 -228 15 -361 20 -455 6 -117 14 -290 20 -440 3 -66 7 -160
10 -210 2 -49 7 -148 10 -220 3 -71 8 -168 10 -215 2 -47 7 -148 10 -225 4
-77 8 -174 10 -215 2 -41 6 -142 10 -225 3 -82 8 -151 10 -153 2 -3 -4 -25
-14 -51 -11 -25 -33 -82 -50 -126 -17 -44 -35 -89 -40 -100 -11 -25 -65 -186
-81 -240 -23 -83 -62 -231 -66 -255 -3 -14 -7 -32 -9 -40 -2 -8 -7 -31 -10
-50 -3 -19 -10 -60 -17 -90 -6 -30 -12 -66 -13 -80 -1 -14 -6 -45 -9 -70 -24
-160 -31 -282 -31 -535 0 -205 7 -361 19 -435 3 -14 7 -49 10 -79 4 -30 9 -64
11 -75 2 -12 7 -37 10 -56 7 -51 14 -91 21 -120 3 -14 8 -36 10 -50 3 -14 14
-61 25 -105 11 -44 22 -87 24 -95 14 -59 72 -238 109 -336 409 -1097 1293
-1955 2400 -2329 124 -41 358 -107 431 -119 17 -3 41 -8 55 -11 99 -19 130
-25 170 -30 25 -3 72 -10 105 -15 204 -31 838 -34 945 -5 8 3 38 7 65 10 43 4
208 32 300 50 255 51 651 188 898 312 265 134 588 341 752 484 235 204 318
286 485 474 256 289 508 704 659 1083 86 216 194 577 206 687 1 12 16 93 22
120 2 11 6 36 8 55 3 19 9 67 14 105 6 39 14 104 18 145 9 98 10 595 0 685 -8
75 -25 214 -32 255 -3 14 -7 42 -10 64 -7 43 -12 69 -20 106 -3 14 -7 34 -9
45 -12 60 -41 172 -68 265 -16 58 -31 110 -32 115 -1 6 -4 15 -7 20 -4 6 -17
42 -29 80 -36 109 -111 287 -184 435 -48 96 -65 142 -61 160 3 14 7 41 9 60 3
19 7 49 10 65 2 17 8 55 11 85 3 30 8 62 10 70 2 8 6 40 9 70 3 30 8 64 10 75
2 11 7 45 11 75 4 30 9 62 10 71 2 8 6 40 9 70 3 30 8 65 11 78 2 14 7 45 10
70 3 25 7 55 9 66 4 20 13 89 21 155 2 19 7 53 10 75 9 53 13 82 19 130 3 22
8 59 11 81 3 23 8 59 10 80 3 22 7 57 11 79 11 77 13 90 24 171 6 44 12 89 14
100 2 10 7 44 10 74 4 30 8 66 10 80 3 14 7 45 10 70 3 25 8 54 10 65 2 11 7
49 11 85 4 36 9 74 11 85 2 11 6 40 9 65 3 25 8 56 10 70 2 14 7 45 10 70 3
25 8 56 10 70 2 14 7 49 10 79 4 30 9 63 11 75 8 43 15 96 12 96 -2 -1 -41
-17 -88 -36z"/>
</g>
</svg>
