<svg height="727" width="327" xmlns="http://www.w3.org/2000/svg"><path d="m25.1 387.1c-4.254 1.662-5.097 3.517-12 3.9-.34-3.609-.171-9.883-1-15 2.857-3.652 1.932-12.483 3-19 2.181-4.241 5.603-11.088 6.9-15.9 1.845-4.666-3.675-8.707-3-13.1.112-.73 2.713-4.838 3-6.9 1.027-3.254-1.9-10.057-3-14.1-.952-3.501.577-9.041 1-11 1.059-4.904-1.339-8.395-2-11-2.775-10.942 11.027-25.352 7-37-1.447-4.185-7.412-6.488-9.9-11-1.803-7.682 2.574-16.779 0-21.9-.1.233-2-.433-3-2-1.562-4.072.686-10.645 0-16.1 3.777-1.387 4.745-1.727 5.9-5.9-5.485-1.747-5.389-5.727-5.9-15 3.805-3.39 11.435-23.108 12.9-29 0-3.1 0-8 0-12 .637-1.192 3.287-3.328 3.1-6 1.233-1.766 1.567-4.434 1-8 2.566-.1 4.234-2 5.9-3 .333-.766.667-2.433 1-5 1.862-.714 5.953.195 7.1-2 5.607-2.079 5.084-4.727 12.9-5.1 1.455 2.542-.217 1.128 3 1.1.667-3.766 1.333-8.434 1.1-14 1.567 0 2.233 0 2 0 3.705-.698 6.772 1.981 7.9 0 2.812-4.009-1.529-12.813-1-17 .359-1.33 4.405-4.052 5-7-.333-1.1-.667-4-1-6 3.633-20.776-5.46-53.846 15-62 4.159-2.064 11.36 1.851 19-1 9.185-1.445 24.722 2.219 31 8 2.632 3.701 3.413 8.122 6 10 .292 17.952-.027 33.399 4.1 48 2.67 6.358-1.22 12.256-2 14 1.14 6.197 5.472 12.358 6 15 1.567 5.566 2.233 10.234 2.9 14 5.049 4.272 11.655-3.131 15.1-5 3 1.233 6.9 1.567 9.9 1.9 5.998 9.828 10.185 7.772 10 25 .798.98 1.446 2.743 2 4 14.015 6.603 18.16 16.024 23.1 30.1 1.827 3.278 5.074 5.12 5 7 .567 9.232.233 17.567-1 25 7.935 21.709 27.63 39.702 22.9 62-5.89 1.909-27.657 20.981-28 27 5.698 5.386 3.331 25.984-2 28-5.034 3.869-14.942-2.014-19-.1-4.422 1.54-7.011 5.596-11.9 7.1 10.891 23.183 42.9 64.9 42.9 64.9s11.793 17.317 18 26c4.323 6.046 8.036 11.793 11.1 18 2.989 3.272 5.814 6.854 7.9 9.1 7.5 12.214 15.234 22.128 22.1 32 2.995 3.807 8.059 10.549 9.9 13.9 10.55 19.2 29.611 33.506 34 62-.667 0-1.333 0-2.9 0-6.859-7.473-15.439-10.408-23-19.9-4.573-6.16-9.873-14.365-16-23-1.1-.766-1-2.434-2.1-4.1-11.171-16.484-22.588-32.997-34-49.9-11.065-14.617-22.319-30.163-33.9-47-4.782-7.578-10.407-14.561-17-23.1-3.336-6.354-9.378-13.853-14-21.9.567 1.233.233 1.567-1 1 .567 0 .233 0-1 0 5.557 11.233 7.456 25.431 12.9 35.9 3.661 7.041 10.854 15.415 12 22 1.398 8.037 3.76 29.749 1 36-.961 2.178-4.325 5.13-5.9 8 .14 3.228 3.736 27.874 4.9 31 .69 1.852 2.97 1.756 4 2.1 2.774 4.25 4.187 11.086 5.1 14 3.989.905 6.034 1.239 7.9 1.9 7.919 13.625 22.795 31.159 23 51-4.435 2.81-7.071 5.353-7.9 13 4.594 5.897 1.13 16.895 4.9 22.1.1 1.233 2 1.567 3 1.9 2.53 2.257 8.468 10.884 8.1 15 .233 0-.433 0-2 0-2.351 1.87-3.046-.8-5.1 1.1 3.835 5.636 6.945 9.601 11 13.9-1.193 1.896-.578 5.319-1.9 6-.94 1.161-3.31.494-5 1 .096 1.021.545.274-1 1.1 5.312 4.232 12.214 12.143 12.9 18-2.353 1.789-4.274 2.669-6.9 3.9 2.234 8.588 3.032 15.993 8.9 20 7.622 4.244 13.153-1.647 13 11-2.666 1.667-5.334 3.333-8.9 5 2.928 4.36 9.297 18.901 6.9 23-1.037 3.261-1.784 3.918-5.9 5-8.89 7.178-38.639 3.665-52 1-.181-1.758-1.615-3.618-4-5 0-9.666 0-19.334 0-29 1.542-2.539 4.597-8.008 2-13 .157-2.185-3.347-4.682-4.1-7 .333-5.333.667-10.667 1-16-.817-4.464-1.08-11.816-3-17-.809-2.185-4.122-3.836-5.9-6.9-2.855-8.354-2.439-16.14-8-24.1-3.468-7.461-9.151-9.986-17-15.9-2.766-3.1-6.434-8-11-11.1.993-7.564-.825-11.867-3-17 1.233-5.666 1.567-11.334 1-17-.277-6.065 1.665-16.764-1-24.9-.578-5.158-3.97-11.075-6.1-16.1-1.464-3.454-.802-7.345-3-10-2-.667-4.9-1.333-6.9-2.9-1.569-1.189-.364-6.145-3-9.1-3.1-3-8-6.9-12-9.9-.1-2.1-2-6-3-8.1-3.87-9.15-10.813-18.477-17-27.9-4.119-7.192-6.093-17.013-13-25v1.9c-6.613 11.939 8.161 37.198 3.9 51-1.091 3.532-4.961 7.84-6.9 11-1.441 7.121 4.394 13.75 0 19.1-.707 3.775-4.9 4.087-6.1 7.9-5.07 16.107 6.9 22.596 8.1 29.1.567 7.566.233 14.234-1 20.9 1.427 2.222 3.466 7.219 3.9 8.1-.667 5.566-1.333 10.234-2.9 14.9 1.233 14.665 1.567 29.335 1 44 .338 3.849-1.209 11.629-1 17 3.413 12.176 9.233 28.887 8.9 47-3.516 2.288-4.425 4.427-10.9 5-6.81 5.134-13.614-3.135-22 0-4.223 2.145-9.552 8.042-15 11-14.9 10.275-60.189 11.157-62.1-14 1.105-1.384 1.494-2.873 2-5 7.703-4.29 17.889-8.564 26.1-11 0-1 0-2.9 0-3-1.038-1.667-.768-1.439-2-5 1-.333 2.9-.667 3-1.9 12.592-5.87 27.431 2.902 28.9-16.1-3.369-1.32-4.709-1.397-6-5.9-.251-.068-.784.521 0-.1 1.652-4.063 3.922-3 5-8-4.06-.975-4.603-1.177-5-6 2.271-1.47 3.009-2.103 4-5-2.61-.793-5.585-.679-7.9-3-.615-2.356 7.958-10.445 2-17.9-2.013-.938-7.426-1.794-10.1-4-.333-2.766-.667-6.434-1-11 .837-1.999 3.984-6.109 3-11.1-.966-4.901-4.651-11.29-3-18 2.087-8.479 11.401-19.612 7.1-30-.496-4.263-3.832-11.393-5.1-16.9 0-2.1 0-6 0-8.1-1.333-1-2.667-2.9-4-3.9.333-3.433.667-7.767 1-12.1-1.666-1.666-3.334-3.333-5.9-5.9-1.398-2.855-3.763-9.396-6-14-3.054-10.055-3.723-24.888-6.1-37-2.853-12.556 5.8-23.387 5.1-37zm139-148c-.392 4.509-3.54 8.377-6.1 10-.667 0-1.333 0-2 0-1.166 2.501-1.897 20.699-2.9 24.9 4.056 2.727 2.84 5.819 7.9 7 2.169-2.93 6.078-5.952 7.1-9.9 1.567-2.766 2.233-6.434 2-11 2.732-1.914 5.405-1.187 6.9-5.1-1.325-1.756-1.675-5.183-3-7-1.883-1.915-6.805-6.947-9.9-8.9z" fill="#b7b7b7" fill-rule="evenodd"/></svg>